<svg width="1080" height="1080" viewBox="0 0 1080 1080" fill="none" xmlns="http://www.w3.org/2000/svg">
<path d="M455.985 55.8493L519.985 151.545H522.447L574.139 33.7656C530.57 19.0726 495.899 34.6588 455.985 55.8493Z" fill="#ffffff"/>
<path d="M588.908 41.127C580.453 70.3854 563.129 99.4353 550.063 127.008C544.795 138.128 534.895 151.253 534.149 163.814C533.115 181.199 558.105 206.338 567.601 220.25C600.675 268.699 634.612 316.567 667.678 365.021L704.601 303.678L771.69 180.99L798.139 127.008L588.908 41.127Z" fill="#ffffff"/>
<path d="M315.677 590.765C359.473 485.907 414.176 385.358 460.566 281.594C472.726 254.399 486.124 227.685 498.592 200.62C502.949 191.158 511.931 179.538 511.392 168.721C510.163 144.024 472.898 108.089 459.266 87.7479C454.479 80.6026 448.037 65.6126 438.301 64.5134C429.287 63.4951 417.364 71.1973 409.216 74.505C385.312 84.2145 361.767 94.8098 337.831 104.431C301.541 119.018 265.807 134.955 229.523 149.585C214.316 155.714 189.112 161.608 177.376 173.182C156.3 193.963 146.006 244.38 135 271.779C127.948 289.34 106.36 321.568 108.854 340.483C110.67 354.239 128.91 369.416 137.403 379.743C164.317 412.479 191.072 445.359 218.235 477.893C239.261 503.078 260.066 528.477 280.731 553.959C290.914 566.517 301.066 583.385 315.677 590.765Z" fill="#ffffff"/>
<path d="M812.908 134.369L718.609 308.585L681.898 379.744L696.369 406.735L738.25 468.078L903.985 708.545C941.883 662.994 967.7 596.51 995.604 544.144C1005.03 526.463 1026.56 500.428 1028.03 480.347C1029.65 458.276 1007.32 424.637 999.008 404.281C976.281 348.63 954.178 292.628 930.37 237.426C922.338 218.805 916.571 187.569 901.979 173.182C882.88 154.35 837.942 144.049 812.908 134.369Z" fill="#ffffff"/>
<path d="M522.447 183.443C481.996 287.372 428.704 390.238 379.067 490.162C365.794 516.88 354.176 544.416 340.903 571.135C336.091 580.822 325.405 596.733 327.865 607.941C331.318 623.66 351.419 639.967 361.403 652.109C391.301 688.468 419.345 730.15 453.524 762.527C507.478 671.331 557.435 576.563 606.767 482.8C618.915 459.713 631.636 436.805 644.48 414.095C649.393 405.407 659.161 392.552 658.585 382.197C657.649 365.332 634.38 341.98 624.985 328.214C593.989 282.81 563.569 219.852 522.447 183.443Z" fill="#ffffff"/>
<path d="M99.0619 357.659C85.2699 398.298 67.0693 438.412 50.2004 477.893C42.7788 495.26 28.8392 517.761 28.0416 536.783C26.8109 566.164 53.1986 605.512 64.1056 632.479C86.9783 689.023 110.808 745.179 133.523 801.787C144.933 830.216 154.415 868.19 172.908 892.576C209.706 829.718 234.479 758.974 267.055 693.822C277.386 673.159 305.024 633.517 303.805 610.395C302.69 589.246 265.149 557.632 251.877 541.69C201.957 481.731 156.135 410.835 99.0619 357.659Z" fill="#ffffff"/>
<path d="M670.139 396.92L518.942 674.193L478.708 747.805L466.826 777.25L518.942 843.501L652.908 1007.9C679.744 1000.58 706.075 987.242 731.678 976.371C742.691 971.695 758.206 967.859 767.033 959.566C778.636 948.659 785.192 928.467 792.874 914.66C812.347 879.662 831.813 844.588 850.459 809.149C860.867 789.372 871.914 769.894 882.592 750.259C886.875 742.382 895.018 732.781 893.91 723.268C890.806 696.571 852.453 659.706 837.524 637.387C802.186 584.56 765.425 532.624 729.28 480.347C710.531 453.231 693.706 420.024 670.139 396.92Z" fill="#ffffff"/>
<path d="M1036.91 499.977L947.665 661.924L917.504 723.268L953.216 779.704C983.057 734.908 999.077 672.622 1019.19 622.664C1029.33 597.454 1047.69 568.566 1051.75 541.69C1053.7 528.798 1043.9 510.471 1036.91 499.977Z" fill="#ffffff"/>
<path d="M315.677 622.664L281.976 696.276L219.042 831.232L185.216 907.298L283.677 949.505L340.293 971.095C364.615 925.014 390.006 879.46 414.9 833.686C422.816 819.125 441.851 796.561 442.031 779.703C442.183 765.275 422.149 748.565 413.647 737.99C383.99 701.095 353.327 651.368 315.677 622.664Z" fill="#ffffff"/>
<path d="M903.985 740.444L790.755 951.466L867.062 919.594L902.265 903.13L928.601 843.501L944.347 796.88L908.908 740.444H903.985Z" fill="#ffffff"/>
<path d="M453.524 791.972L355.062 978.457C393.28 1000.14 437.735 1013.36 478.139 1030.67C498.274 1039.3 522.073 1053.82 544.601 1051.81C577.455 1048.88 608.987 1024.27 640.601 1015.26L458.447 791.972H453.524Z" fill="#ffffff"/>
</svg>
